# xmcd
#
# Track frame offsets:
#  150
#  12596
#  25910
#  39718
#  52402
#  64402
#  76924
#  90777
#  100744
#  113585
#  125793
#  140420
#  150278
#  169643
#  181808
#  195682
#  208164
#
# Disc length: 2978 seconds
#
# Revision: 0
# Processed by: cddbd v1.4PL0 Copyright (c) Steve Scherf et al.
# Submitted via: AltoMP3_Maker 3.0
#
DISCID=e30ba011
DTITLE=Donny and Marie Osmond - The Collection
DYEAR=1900
DGENRE=
TTITLE0=I'm leaving it (all) up to you
TTITLE1=Morning side of the mountain
TTITLE2=Puppy Love
TTITLE3=Make the world go away
TTITLE4=Paper Roses
TTITLE5=Deep Purple
TTITLE6=Too Young
TTITLE7=Ain't nothing like the real thing
TTITLE8=In my little corner of the world
TTITLE9=Why
TTITLE10=(You're) my soul and inspiration
TTITLE11=Who's sorry now
TTITLE12=One of these days
TTITLE13=The Twelfth of Never
TTITLE14=Let it be me
TTITLE15=It takes two
TTITLE16=Its all in the game
EXTD=
EXTT0=
EXTT1=
EXTT2=
EXTT3=
EXTT4=
EXTT5=
EXTT6=
EXTT7=
EXTT8=
EXTT9=
EXTT10=
EXTT11=
EXTT12=
EXTT13=
EXTT14=
EXTT15=
EXTT16=
PLAYORDER=
